<?xml version="1.0" encoding="UTF-8"?>
<svg id="Layer_1" data-name="Layer 1" xmlns="http://www.w3.org/2000/svg" viewBox="0 0 17.26 17.26">
  <defs>
    <style>
      .cls-1 {
        fill: #fff;
        stroke: #fff;
        stroke-miterlimit: 10;
        stroke-width: .16px;
      }

      .cls-2 {
        fill: #f9ed32;
      }

      .cls-3 {
        fill: #f7941d;
      }

      .cls-4 {
        fill: #ef4136;
      }

      .cls-5 {
        fill: #8dc63f;
      }

      .cls-6 {
        fill: #27aae1;
      }

      .cls-7 {
        fill: #2e3192;
      }
    </style>
  </defs>
  <g>
    <path class="cls-4" d="M1.25,13.09c-.46-.76-.81-1.61-1.02-2.52-.54-2.33-.08-4.66,1.11-6.54l7.3,4.59h0S1.25,13.09,1.25,13.09Z"/>
    <path class="cls-2" d="M1.25,13.09l7.39-4.46-.1,8.62c-2.99-.03-5.76-1.62-7.29-4.16Z"/>
    <path class="cls-7" d="M8.63,8.62L1.33,4.03C2.5,2.16,4.38,.76,6.69,.22,7.38,.07,8.06,0,8.73,0l-.1,8.62Z"/>
    <path class="cls-3" d="M8.54,17.25l.1-8.62,7.3,4.59c-1.17,1.86-3.05,3.28-5.36,3.81-.68,.16-1.36,.23-2.03,.22Z"/>
    <path class="cls-5" d="M8.63,8.63h0s7.39-4.46,7.39-4.46c.46,.77,.81,1.61,1.02,2.52,.54,2.33,.07,4.65-1.11,6.53l-7.3-4.59Z"/>
    <path class="cls-6" d="M8.63,8.62L8.73,0c2.99,.03,5.76,1.63,7.29,4.17l-7.39,4.45Z"/>
  </g>
  <path class="cls-1" d="M8.63,4.72s-3.95,7.46-.08,7.5c4.06,.04,.08-7.5,.08-7.5Z"/>
</svg>