<?xml version="1.0" encoding="UTF-8"?>
<svg id="Layer_1" data-name="Layer 1" xmlns="http://www.w3.org/2000/svg" xmlns:xlink="http://www.w3.org/1999/xlink" viewBox="0 0 17.25 25.06">
  <defs>
    <style>
      .cls-1 {
        fill: url(#linear-gradient);
      }

      .cls-2 {
        fill: #fff;
      }

      .cls-3 {
        fill: #231f20;
      }

      .cls-4 {
        fill: none;
        stroke: #fff;
        stroke-miterlimit: 10;
      }
    </style>
    <linearGradient id="linear-gradient" x1="4.38" y1="4.06" x2="12.61" y2="12.3" gradientUnits="userSpaceOnUse">
      <stop offset="0" stop-color="#fff33b"/>
      <stop offset=".04" stop-color="#fee62d"/>
      <stop offset=".12" stop-color="#fdd51b"/>
      <stop offset=".2" stop-color="#fdca0f"/>
      <stop offset=".28" stop-color="#fdc70c"/>
      <stop offset=".57" stop-color="#00a651"/>
      <stop offset=".89" stop-color="#ed683c"/>
      <stop offset="1" stop-color="#e93e3a"/>
    </linearGradient>
  </defs>
  <path class="cls-4" d="M1.68,1.02c.08,3.54-.2,7.13-.2,10.69,0,1.45-.21,4.4-.21,4.4,0,0,9.32-.31,14.07-.52,.19-4.65,.52-9.91,.64-14.54-3.55-.22-7.67,.18-11.23,.18"/>
  <g>
    <polygon class="cls-3" points="4.3 4.14 4.32 12.97 12.32 12.59 13.13 3.86 4.3 4.14"/>
    <path class="cls-1" d="M10.93,5.93l-.44,4.74-4.17,.2V6.08s4.61-.15,4.61-.15m2.2-2.07l-8.83,.28,.03,8.83,8-.38,.81-8.73h0Z"/>
  </g>
  <polygon class="cls-2" points="4.3 18.5 13.13 18.5 8.63 23.14 4.3 18.5"/>
</svg>