<?xml version="1.0" encoding="UTF-8"?>
<svg id="Layer_1" data-name="Layer 1" xmlns="http://www.w3.org/2000/svg" xmlns:xlink="http://www.w3.org/1999/xlink" viewBox="0 0 168 165">
  <defs>
    <style>
      .cls-1 {
        fill: none;
      }

      .cls-2 {
        clip-path: url(#clippath);
      }

      .cls-3 {
        fill: #fff;
      }
    </style>
    <clipPath id="clippath">
      <circle class="cls-1" cx="82.5" cy="82.5" r="82.5"/>
    </clipPath>
  </defs>
  <g class="cls-2">
    <g>
      <path class="cls-3" d="M181,178.39H-23V-13.61H181V178.39ZM109.41,78.68c-2.06-.89-3.93-1.19-4.99-2.27-2.09-2.15-5.17-4.73-5.18-7.13,0-2.67,2.89-5.4,4.71-7.97,.52-.74,1.71-.99,2.55-1.52,9.58-6.07,10.05-17.43,.83-23.95-7.9-5.58-16.9-8.05-26.47-7.28-28.88,2.31-51.26,25.77-52.56,54.72-.96,21.53,13.62,39.25,34.64,42.05,3.17,.42,5.58,.27,8.04-2.98,2.4-3.17,6.76-4.86,10.24-7.22,1.26-.85,3.19-1.48,3.62-2.65,4.93-13.34,13.57-23.96,24.56-33.81Zm29.8-17.02c-17.65,8.93-32.85,20.55-44.53,36.66,5.61,4.84,10.75,9.27,16.32,14.06,14.02-14.59,22.48-31.8,28.21-50.73Zm-74.43,84.75c3.11,0,5.75,.22,8.33-.04,7.93-.82,14.89-3.61,19.26-10.75,3.91-6.38,1.47-12.63-6.6-17.56-3.46-2.11-9.59,.22-12.76,4.95-.83,1.23-1.6,2.57-2.06,3.97-2.01,6.1-3.9,12.23-6.17,19.44Zm28.79-45.97c-8.56,13.51-8.49,14.55,1.17,22.33,.24,.19,.6,.24,1.45,.55,4.04-2.83,8.34-5.84,13.13-9.19-5.54-4.82-10.52-9.15-15.75-13.69Z"/>
      <path d="M109.41,78.68c-10.99,9.84-19.63,20.47-24.56,33.81-.43,1.17-2.36,1.8-3.62,2.65-3.49,2.36-7.84,4.05-10.24,7.22-2.46,3.24-4.87,3.4-8.04,2.98-21.01-2.8-35.6-20.52-34.64-42.05,1.3-28.95,23.68-52.41,52.56-54.72,9.57-.77,18.57,1.7,26.47,7.28,9.22,6.52,8.75,17.88-.83,23.95-.84,.53-2.03,.78-2.55,1.52-1.82,2.57-4.71,5.3-4.71,7.97,0,2.41,3.09,4.99,5.18,7.13,1.06,1.09,2.93,1.38,4.99,2.27Zm-27.73,17.67c7.13-.08,13.97-6.6,13.85-13.21-.09-5.2-4.41-9.06-10-8.93-7.1,.17-13.69,6.74-13.51,13.48,.14,5.08,4.19,8.72,9.65,8.66Zm-12.1,14.26c-.1-3.91-3.55-7.22-7.42-7.12-3.93,.11-7.17,3.53-7.09,7.48,.08,3.81,3.72,7.35,7.44,7.21,3.82-.14,7.17-3.73,7.08-7.58Zm23.14-56.65c3.9-.05,7.19-3.47,7.12-7.4-.07-3.99-3.39-7.27-7.33-7.22-3.92,.05-7.12,3.41-7.08,7.43,.04,4.04,3.29,7.24,7.29,7.19Zm-18.99-5.53c-.09-3.88-3.59-7.28-7.41-7.21-3.88,.08-7.15,3.52-7.09,7.46,.06,3.96,3.42,7.24,7.35,7.17,3.92-.07,7.24-3.52,7.15-7.42Zm-29.07,37.08c-3.94,.07-7.07,3.39-7.04,7.48,.03,4.1,3.18,7.27,7.19,7.25,3.88-.03,7.2-3.45,7.16-7.39-.03-3.84-3.58-7.4-7.31-7.34Zm2.91-10.8c4.12,.35,7.49-2.55,7.79-6.69,.29-3.97-2.88-7.6-6.81-7.8-3.72-.19-7.15,2.8-7.51,6.55-.4,4.07,2.51,7.6,6.53,7.94Z"/>
      <path d="M139.22,61.66c-5.73,18.92-14.19,36.13-28.21,50.73-5.56-4.79-10.71-9.23-16.32-14.06,11.68-16.11,26.88-27.73,44.53-36.66Z"/>
      <path d="M64.79,146.41c2.27-7.2,4.16-13.34,6.17-19.44,.46-1.4,1.24-2.73,2.06-3.97,3.17-4.72,9.3-7.06,12.76-4.95,8.07,4.93,10.51,11.18,6.6,17.56-4.37,7.14-11.33,9.94-19.26,10.75-2.59,.27-5.22,.04-8.33,.04Z"/>
      <path d="M93.57,100.44c5.23,4.54,10.2,8.87,15.75,13.69-4.78,3.35-9.09,6.36-13.13,9.19-.85-.31-1.21-.36-1.45-.55-9.66-7.78-9.72-8.83-1.17-22.33Z"/>
      <path class="cls-3" d="M81.68,96.34c-5.46,.06-9.52-3.58-9.65-8.66-.18-6.73,6.41-13.31,13.51-13.48,5.58-.13,9.91,3.73,10,8.93,.11,6.6-6.73,13.13-13.85,13.21Z"/>
      <path class="cls-3" d="M69.58,110.6c.1,3.86-3.25,7.45-7.08,7.58-3.71,.13-7.36-3.41-7.44-7.21-.08-3.96,3.16-7.38,7.09-7.48,3.87-.11,7.33,3.21,7.42,7.12Z"/>
      <path class="cls-3" d="M92.73,53.95c-4,.05-7.25-3.16-7.29-7.19-.04-4.02,3.16-7.38,7.08-7.43,3.93-.05,7.25,3.23,7.33,7.22,.07,3.94-3.22,7.35-7.12,7.4Z"/>
      <path class="cls-3" d="M73.74,48.42c.09,3.9-3.23,7.35-7.15,7.42-3.93,.07-7.29-3.2-7.35-7.17-.06-3.94,3.21-7.38,7.09-7.46,3.82-.08,7.32,3.33,7.41,7.21Z"/>
      <path class="cls-3" d="M44.67,85.5c3.73-.06,7.28,3.5,7.31,7.34,.04,3.94-3.29,7.37-7.16,7.39-4.01,.03-7.16-3.15-7.19-7.25-.03-4.09,3.1-7.41,7.04-7.48Z"/>
      <path class="cls-3" d="M47.59,74.7c-4.02-.34-6.92-3.87-6.53-7.94,.37-3.76,3.79-6.75,7.51-6.55,3.93,.2,7.1,3.84,6.81,7.8-.3,4.15-3.67,7.04-7.79,6.69Z"/>
    </g>
  </g>
</svg>