<?xml version="1.0" encoding="UTF-8"?>
<svg id="Layer_1" data-name="Layer 1" xmlns="http://www.w3.org/2000/svg" xmlns:xlink="http://www.w3.org/1999/xlink" viewBox="0 0 167.99 170.5">
  <defs>
    <style>
      .cls-1 {
        fill: none;
      }

      .cls-2 {
        clip-path: url(#clippath);
      }

      .cls-3, .cls-4 {
        fill: #fff;
      }

      .cls-4 {
        stroke: #000;
        stroke-miterlimit: 10;
      }
    </style>
    <clipPath id="clippath">
      <circle class="cls-1" cx="85.49" cy="82.5" r="82.5"/>
    </clipPath>
  </defs>
  <g class="cls-2">
    <ellipse class="cls-4" cx="80.83" cy="80.5" rx="125" ry="118"/>
    <g>
      <path class="cls-3" d="M85.63,11.16h71.2V153.84c-47.56,0-95.12,0-142.68,0,0-47.56,0-95.12,0-142.68,23.73,0,47.47,0,71.2,0-.3,.39-.55,.82-.9,1.16-7.86,7.87-15.72,15.73-23.58,23.6-.35,.35-.69,.73-1.07,1.13,8.52,8.64,16.98,17.22,25.45,25.8,.14-.09,.28-.18,.42-.27v-19.22c2.87,.38,5.6,.57,8.25,1.14,8.53,1.83,15.63,6.16,21.26,12.8,6.43,7.59,9.5,16.42,9.23,26.37-.15,5.5-1.67,10.67-3.97,15.63-.38,.81-.39,1.36,.32,2.05,2.8,2.7,5.52,5.49,8.28,8.23,.18,.18,.42,.29,.63,.44,8.79-15.08,10.27-33.37,3.5-47.97-9.33-20.12-25.41-30.37-47.54-31.61V11.16Zm0,110.21c-2.88-.38-5.6-.56-8.25-1.12-8.58-1.84-15.73-6.19-21.37-12.88-6.38-7.57-9.43-16.36-9.16-26.27,.15-5.5,1.65-10.68,3.97-15.64,.42-.9,.31-1.46-.41-2.15-2.5-2.41-4.93-4.9-7.39-7.36-.44-.44-.89-.87-1.37-1.34-8.84,15.89-10.61,32.04-3.62,47.8,9.04,20.38,25.36,30.64,47.63,31.9v18.76c8.52-8.52,17.06-17.06,25.44-25.44-8.39-8.39-16.9-16.9-25.46-25.46v19.2Z"/>
      <path d="M85.63,11.16V30.43c22.13,1.24,38.21,11.49,47.54,31.61,6.77,14.6,5.29,32.89-3.5,47.97-.22-.15-.46-.26-.63-.44-2.76-2.75-5.48-5.53-8.28-8.23-.71-.69-.7-1.24-.32-2.05,2.3-4.96,3.82-10.13,3.97-15.63,.27-9.95-2.8-18.78-9.23-26.37-5.63-6.64-12.73-10.96-21.26-12.8-2.65-.57-5.38-.76-8.25-1.14v19.22c-.14,.09-.28,.18-.42,.27-8.46-8.58-16.92-17.16-25.45-25.8,.38-.4,.72-.77,1.07-1.13,7.86-7.87,15.73-15.73,23.58-23.6,.34-.34,.6-.77,.9-1.16,.09,0,.19,0,.28,0Z"/>
      <path d="M85.64,121.37v-19.2c8.56,8.56,17.07,17.07,25.46,25.46-8.38,8.38-16.91,16.91-25.44,25.44v-18.76c-22.27-1.25-38.59-11.52-47.63-31.9-6.99-15.77-5.22-31.91,3.62-47.8,.48,.47,.93,.9,1.37,1.34,2.46,2.46,4.89,4.94,7.39,7.36,.72,.69,.83,1.25,.41,2.15-2.32,4.95-3.82,10.13-3.97,15.64-.27,9.91,2.78,18.7,9.16,26.27,5.64,6.69,12.79,11.05,21.37,12.88,2.64,.57,5.37,.74,8.25,1.12Z"/>
    </g>
  </g>
</svg>